{"accessors" : [{"bufferView" : 0, "byteOffset" : 0, "componentType" : 5123, "count" : 89994, "type" : "SCALAR", "max" : [19662], "min" : [0]}, {"bufferView" : 1, "byteOffset" : 0, "componentType" : 5126, "count" : 19663, "type" : "VEC3", "max" : [0.3567730784416199, 1.0133769512176514, 0.4604160487651825], "min" : [-0.36495012044906616, -0.009976081550121307, -0.40498703718185425], "name" : "POSITION"}, {"bufferView" : 1, "byteOffset" : 12, "componentType" : 5126, "count" : 19663, "type" : "VEC3", "max" : [0.9999668598175049, 0.9998569488525391, 0.9999874830245972], "min" : [-0.9999752044677734, -0.9994959235191345, -0.9999346137046814], "name" : "NORMAL"}, {"bufferView" : 1, "byteOffset" : 24, "componentType" : 5126, "count" : 19663, "type" : "VEC2", "max" : [0.9938244819641113, 1.9999936819076538], "min" : [5.467436130857095E-05, 1.000046968460083], "name" : "TEXCOORD_0"}], "asset" : {"generator" : "Aspose.3D 24.6.0", "version" : "2.0"}, "buffers" : [{"uri" : "data:application/octet-stream;base64,", "byteLength" : 809212}], "bufferViews" : [{"buffer" : 0, "byteOffset" : 0, "byteLength" : 179988, "target" : 34963}, {"buffer" : 0, "byteOffset" : 179992, "byteLength" : 629216, "byteStride" : 32, "target" : 34962}], "images" : [{"uri" : "data:image/jpeg;base64,"}, {"uri" : "data:image/jpeg;base64,"}, {"uri" : "data:image/jpeg;base64,"}], "materials" : [{"name" : "baking-final", "pbrMetallicRoughness" : {"baseColorFactor" : [1, 1, 1, 1], "baseColorTexture" : {"index" : 1, "texCoord" : 0}, "metallicFactor" : 0, "roughnessFactor" : 1, "metallicRoughnessTexture" : {"index" : 2, "texCoord" : 0}}, "normalTexture" : {"index" : 0, "texCoord" : 0, "scale" : 1}, "emissiveFactor" : [0, 0, 0], "alphaMode" : "OPAQUE", "doubleSided" : true}], "meshes" : [{"primitives" : [{"attributes" : {"POSITION" : 1, "NORMAL" : 2, "TEXCOORD_0" : 3}, "indices" : 0, "material" : 0, "mode" : 4}]}], "nodes" : [{"mesh" : 0, "name" : "Mesh_0"}], "samplers" : [{"magFilter" : 9729, "minFilter" : 9987, "wrapS" : 10497, "wrapT" : 10497}, {"magFilter" : 9729, "minFilter" : 9987, "wrapS" : 10497, "wrapT" : 10497}, {"magFilter" : 9729, "minFilter" : 9987, "wrapS" : 10497, "wrapT" : 10497}], "scene" : 0, "scenes" : [{"nodes" : [0]}], "textures" : [{"sampler" : 0, "source" : 0, "name" : ""}, {"sampler" : 1, "source" : 1, "name" : ""}, {"sampler" : 2, "source" : 2, "name" : ""}]}